PathFileType	3	(X/Y/Z)	D:\minhoCalibration\240510\subject2_KPNP\preferred\preferred12.trc
DataRate	CameraRate	NumFrames	NumMarkers	Units	OrigDataRate	OrigDataStartFrame	OrigNumFrames
200.0	200.0	21	10	mm	200.0	317	176	
Frame#	Time	Left_Ankle_Outer1			Left_Ankle_Inner1			Left_Knee_Outer1			Left_Knee_Inner1			Left_Wrist1			Right_Wrist1			Right_Knee_Inner1			Right_Knee_Outer1			Right_Ankle_Inner1			Right_Ankle_Outer1			
		X1	Y1	Z1	X2	Y2	Z2	X3	Y3	Z3	X4	Y4	Z4	X5	Y5	Z5	X6	Y6	Z6	X7	Y7	Z7	X8	Y8	Z8	X9	Y9	Z9	X10	Y10	Z10	
317	1.575	-656.96039	113.44234	-668.83856	-666.7121	115.53786	-613.03442	-494.91437	525.32837	-677.02081	-531.21814	510.60236	-589.88544	-505.04321	989.14661	-741.76105	-684.33069	1101.6823	-467.80038	-512.09735	669.25958	-228.95071	-582.00323	718.42346	-184.59467	-725.8493	308.14557	-261.53857	-791.88696	343.23157	-193.08278
318	1.58	-656.82147	112.94778	-669.88806	-666.8559	115.05622	-614.09991	-494.45303	524.91455	-676.65735	-531.94733	510.09305	-589.5575	-503.40759	989.84753	-741.23157	-686.22406	1098.6978	-467.77805	-518.42371	661.70343	-233.2439	-589.35114	710.12885	-189.41539	-729.94739	300.62405	-277.82626	-798.45355	334.39062	-210.99077
319	1.585	-656.68121	112.49789	-670.73224	-667.16113	114.51356	-615.05646	-493.96393	524.33698	-676.26154	-532.81549	509.69647	-589.66553	-501.86414	990.63306	-740.5929	-688.17456	1095.2788	-468.2518	-525.20624	654.2973	-237.69051	-596.9129	701.90002	-194.45071	-733.84595	293.29678	-293.84146	-804.09021	325.73181	-229.89403
320	1.59	-656.53131	112.12346	-671.49829	-666.7373	113.05619	-617.4281	-493.58411	523.86084	-675.70801	-534.10461	509.34769	-590.29138	-500.03564	991.19824	-739.90167	-690.20435	1092.126	-468.74084	-532.00348	646.90863	-242.24664	-604.6344	693.74091	-199.81865	-737.54248	286.19104	-309.72028	-809.92981	318.41531	-246.33627
321	1.595	-656.42755	111.7809	-672.17932	-666.90167	112.271	-618.98419	-493.04318	523.49677	-675.18359	-535.19128	509.15216	-589.97729	-498.79742	991.97559	-738.60474	-692.3457	1088.8833	-469.46863	-539.09467	639.52002	-246.94254	-612.54181	685.66248	-205.44478	-741.14734	279.40671	-325.38507	-815.67065	310.02338	-265.68872
322	1.6	-656.0625	111.10914	-672.15778	-667.30231	113.5482	-617.25836	-492.56552	523.10004	-674.73291	-536.49585	508.65167	-590.34241	-496.87503	992.33978	-737.85022	-694.4743	1085.869	-470.46149	-546.48285	632.0556	-251.8051	-620.56262	677.77106	-211.36798	-744.84448	272.51523	-340.87149	-821.58063	303.03857	-282.09323
323	1.605	-656.1499	111.0211	-673.02106	-667.37024	113.33505	-617.65552	-492.04773	522.82025	-674.23645	-537.40662	508.367	-590.40564	-494.77515	993.23364	-737.41907	-696.60547	1082.9609	-471.31995	-553.53619	624.81702	-257.1925	-628.33167	669.58081	-218.19086	-748.35699	266.09741	-356.15414	-826.89435	295.32993	-300.48566
324	1.61	-655.95483	110.26914	-672.79248	-666.90778	111.56397	-620.48749	-491.57138	522.625	-673.81323	-538.14697	508.14389	-590.51422	-493.31012	993.96387	-735.57935	-698.87054	1080.1494	-472.1669	-560.41766	617.76636	-262.89786	-636.67358	662.03943	-224.59987	-751.54974	260.0549	-371.46249	-831.96021	288.06552	-317.9278
325	1.615	-656.00494	110.33582	-673.68457	-667.04218	111.49516	-620.7677	-491.60712	522.29932	-673.4389	-538.79016	508.16232	-590.64581	-491.47995	994.59479	-734.81372	-701.07495	1077.2362	-473.13416	-568.45807	610.5401	-268.43848	-644.93042	654.59174	-231.46436	-755.23505	253.61908	-386.04205	-836.85114	281.84393	-334.78873
326	1.62	-655.97223	110.12634	-674.06952	-667.65924	111.71707	-620.04773	-491.51517	522.25275	-673.20325	-539.34259	508.01419	-590.65643	-489.85193	995.42297	-732.95032	-703.32355	1074.358	-474.11896	-575.81702	603.64038	-274.6301	-653.14606	647.23499	-238.75008	-758.1297	247.75702	-400.97589	-841.44238	275.55859	-351.535
327	1.625	-655.97406	109.87819	-674.45056	-667.63434	111.46456	-621.10095	-491.59662	522.21552	-672.95959	-539.73291	507.93076	-590.65924	-487.99799	995.8855	-732.05566	-705.58777	1071.4569	-475.18436	-583.60242	596.82202	-281.01111	-661.26349	639.98737	-246.17088	-760.99188	241.99095	-415.0976	-845.37042	268.77771	-369.60318
328	1.63	-655.95374	109.68316	-674.82861	-667.63715	110.14899	-622.72369	-491.88416	522.21515	-672.7998	-540.14124	507.89572	-590.72247	-486.43619	996.54163	-730.16431	-707.8158	1068.5679	-476.293	-591.12445	590.2843	-287.81097	-669.48669	633.13348	-254.38127	-764.15216	236.37061	-429.68686	-849.9787	263.01767	-385.97507
329	1.635	-655.93274	109.44429	-675.18213	-668.08423	109.37883	-623.97119	-492.1232	522.36121	-672.62311	-540.5304	507.80017	-590.69092	-484.90857	997.16455	-729.34332	-710.0235	1065.7257	-477.39688	-598.66174	583.92645	-294.98593	-677.4848	626.40674	-262.65366	-766.36304	230.77718	-443.79288	-853.80121	257.71484	-401.39297
330	1.64	-655.97858	109.23407	-675.66064	-667.08978	110.8707	-621.54913	-492.47455	522.31036	-672.46564	-540.76904	507.99017	-590.73584	-483.82773	998.1604	-728.34143	-712.19745	1062.9573	-478.46799	-606.02228	577.78241	-302.5412	-685.05878	619.34851	-272.0831	-769.27258	225.1758	-456.85651	-857.86755	251.60793	-418.57788
331	1.645	-655.9248	109.01978	-676.1142	-667.41254	111.37262	-619.7984	-492.61426	522.37408	-672.26184	-541.15326	507.9043	-590.6015	-482.41888	998.79053	-726.0506	-714.41351	1060.2375	-479.53873	-613.2019	571.75153	-310.34357	-692.67139	612.92096	-281.04761	-771.19659	219.83302	-470.31424	-861.07318	245.91679	-434.81979
332	1.65	-655.60345	108.59689	-676.15674	-668.45654	108.55431	-625.28638	-492.76941	522.25977	-671.98859	-541.5705	507.79031	-590.409	-481.44455	999.30322	-724.69641	-716.93237	1057.7699	-480.68073	-620.17279	565.90143	-318.43719	-699.99908	606.67627	-290.29263	-770.5976	216.48154	-483.60632	-864.88629	241.96596	-447.827
333	1.655	-655.58484	108.28774	-676.64667	-667.53461	110.04853	-622.7406	-492.62518	522.13727	-671.67279	-541.25507	507.61096	-589.83569	-479.00082	1000.5059	-721.56982	-719.28876	1055.187	-481.77539	-627.04608	560.19122	-327.09744	-707.13385	600.63928	-299.69254	-771.03217	211.0665	-495.08856	-867.90417	235.04214	-465.97281
334	1.66	-655.56433	108.0471	-677.06885	-667.60565	110.17772	-622.25287	-492.23746	521.92957	-671.27002	-541.81555	507.25204	-589.78918	-478.04193	1001.0452	-719.55432	-721.62714	1052.6038	-482.93866	-633.43011	554.66309	-335.74246	-713.94122	594.7016	-309.28732	-774.1424	205.3101	-508.04688	-871.11499	230.3492	-480.18103
335	1.665	-655.5589	107.75794	-677.51959	-668.05536	110.06621	-621.76111	-491.64392	521.5849	-670.815	-541.96454	506.87051	-589.5022	-477.25626	1001.8334	-718.0022	-724.0661	1049.9761	-484.09967	-640.13324	549.38599	-344.9509	-720.63043	588.96625	-319.1882	-781.37482	197.89554	-520.21484	-874.1601	226.5663	-492.89752
336	1.67	-655.59052	107.52166	-677.92865	-668.06018	109.77168	-622.03058	-490.77704	521.11383	-670.33295	-541.9165	506.3718	-589.22656	-475.61807	1002.5816	-714.70642	-726.55872	1047.3843	-485.3215	-646.41339	544.14349	-354.42874	-727.13879	583.31787	-329.3093	-778.80554	195.76422	-531.50934	-877.4361	220.23802	-509.73117
337	1.675	-655.49677	107.17313	-678.25836	-668.10504	109.76389	-621.82379	-489.69052	520.70575	-669.70679	-541.59698	505.80191	-588.82788	-475.33508	1002.9962	-713.30762	-729.11981	1044.73	-486.63763	-652.53131	539.10925	-364.19638	-733.47015	577.82764	-339.5372	-785.45819	188.11478	-544.20374	-879.63263	215.38652	-524.15601
